<svg width="208" height="12" viewBox="0 0 208 12" fill="none" xmlns="http://www.w3.org/2000/svg">
<path d="M4.8868 9.12C4.0708 9.12 3.3548 8.94 2.7388 8.58C2.1228 8.22 1.6428 7.732 1.2988 7.116C0.954797 6.5 0.782797 5.808 0.782797 5.04C0.782797 4.264 0.954797 3.572 1.2988 2.964C1.6428 2.348 2.1228 1.86 2.7388 1.5C3.3548 1.14 4.0708 0.96 4.8868 0.96C5.7028 0.96 6.4188 1.14 7.0348 1.5C7.6508 1.86 8.1308 2.348 8.4748 2.964C8.8188 3.572 8.9908 4.264 8.9908 5.04C8.9908 5.808 8.8188 6.5 8.4748 7.116C8.1308 7.732 7.6508 8.22 7.0348 8.58C6.4188 8.94 5.7028 9.12 4.8868 9.12ZM4.8868 8.34C5.5348 8.34 6.1028 8.196 6.5908 7.908C7.0788 7.612 7.4588 7.216 7.7308 6.72C8.0028 6.216 8.1388 5.656 8.1388 5.04C8.1388 4.424 8.0028 3.868 7.7308 3.372C7.4588 2.868 7.0788 2.472 6.5908 2.184C6.1028 1.888 5.5348 1.74 4.8868 1.74C4.2468 1.74 3.6788 1.888 3.1828 2.184C2.6948 2.472 2.3148 2.868 2.0428 3.372C1.7708 3.868 1.6348 4.424 1.6348 5.04C1.6348 5.656 1.7708 6.216 2.0428 6.72C2.3148 7.216 2.6948 7.612 3.1828 7.908C3.6788 8.196 4.2468 8.34 4.8868 8.34ZM4.9708 7.284C4.2908 7.284 3.7548 7.088 3.3628 6.696C2.9788 6.296 2.7868 5.752 2.7868 5.064C2.7868 4.376 2.9788 3.836 3.3628 3.444C3.7548 3.044 4.2908 2.844 4.9708 2.844C5.4428 2.844 5.8348 2.948 6.1468 3.156C6.4588 3.356 6.6908 3.632 6.8428 3.984L6.1468 4.332C6.0428 4.076 5.8948 3.884 5.7028 3.756C5.5108 3.628 5.2628 3.564 4.9588 3.564C4.5348 3.564 4.1988 3.696 3.9508 3.96C3.7108 4.224 3.5908 4.592 3.5908 5.064C3.5908 5.536 3.7108 5.904 3.9508 6.168C4.1988 6.432 4.5348 6.564 4.9588 6.564C5.2788 6.564 5.5428 6.5 5.7508 6.372C5.9668 6.236 6.1268 6.032 6.2308 5.76L6.8908 6.024C6.7388 6.416 6.5028 6.724 6.1828 6.948C5.8628 7.172 5.4588 7.284 4.9708 7.284ZM14.7884 9V8.22C15.5804 7.636 16.2404 7.124 16.7684 6.684C17.3044 6.244 17.7324 5.844 18.0524 5.484C18.3724 5.124 18.6004 4.784 18.7364 4.464C18.8724 4.136 18.9404 3.796 18.9404 3.444C18.9404 2.972 18.7884 2.592 18.4844 2.304C18.1884 2.008 17.7804 1.86 17.2604 1.86C16.7164 1.86 16.2804 2.04 15.9524 2.4C15.6244 2.752 15.4324 3.224 15.3764 3.816L14.5364 3.312C14.6084 2.848 14.7564 2.44 14.9804 2.088C15.2124 1.736 15.5204 1.46 15.9044 1.26C16.2964 1.06 16.7604 0.96 17.2964 0.96C17.7044 0.96 18.0684 1.02 18.3884 1.14C18.7164 1.26 18.9964 1.432 19.2284 1.656C19.4604 1.872 19.6364 2.132 19.7564 2.436C19.8844 2.74 19.9484 3.076 19.9484 3.444C19.9484 3.94 19.8284 4.428 19.5884 4.908C19.3484 5.38 18.9524 5.876 18.4004 6.396C17.8484 6.916 17.1004 7.492 16.1564 8.124V8.136C16.2444 8.128 16.3644 8.124 16.5164 8.124C16.6764 8.116 16.8324 8.112 16.9844 8.112C17.1444 8.104 17.2644 8.1 17.3444 8.1H20.1164V9H14.7884ZM24.6285 9.12C23.7325 9.12 23.0165 8.772 22.4805 8.076C21.9445 7.38 21.6765 6.368 21.6765 5.04C21.6765 3.712 21.9445 2.7 22.4805 2.004C23.0165 1.308 23.7325 0.96 24.6285 0.96C25.5325 0.96 26.2485 1.308 26.7765 2.004C27.3125 2.7 27.5805 3.712 27.5805 5.04C27.5805 6.368 27.3125 7.38 26.7765 8.076C26.2485 8.772 25.5325 9.12 24.6285 9.12ZM24.6285 8.256C25.0525 8.256 25.4085 8.136 25.6965 7.896C25.9925 7.648 26.2125 7.284 26.3565 6.804C26.5085 6.324 26.5845 5.736 26.5845 5.04C26.5845 4.344 26.5085 3.756 26.3565 3.276C26.2125 2.796 25.9925 2.436 25.6965 2.196C25.4085 1.948 25.0525 1.824 24.6285 1.824C24.2045 1.824 23.8445 1.948 23.5485 2.196C23.2605 2.436 23.0405 2.796 22.8885 3.276C22.7445 3.756 22.6725 4.344 22.6725 5.04C22.6725 5.736 22.7445 6.324 22.8885 6.804C23.0405 7.284 23.2605 7.648 23.5485 7.896C23.8445 8.136 24.2045 8.256 24.6285 8.256ZM29.2493 9V8.22C30.0413 7.636 30.7013 7.124 31.2293 6.684C31.7653 6.244 32.1933 5.844 32.5133 5.484C32.8333 5.124 33.0613 4.784 33.1973 4.464C33.3333 4.136 33.4013 3.796 33.4013 3.444C33.4013 2.972 33.2493 2.592 32.9453 2.304C32.6493 2.008 32.2413 1.86 31.7213 1.86C31.1773 1.86 30.7413 2.04 30.4133 2.4C30.0853 2.752 29.8933 3.224 29.8373 3.816L28.9973 3.312C29.0693 2.848 29.2173 2.44 29.4413 2.088C29.6733 1.736 29.9813 1.46 30.3653 1.26C30.7573 1.06 31.2213 0.96 31.7573 0.96C32.1653 0.96 32.5293 1.02 32.8493 1.14C33.1773 1.26 33.4573 1.432 33.6893 1.656C33.9213 1.872 34.0973 2.132 34.2173 2.436C34.3453 2.74 34.4093 3.076 34.4093 3.444C34.4093 3.94 34.2893 4.428 34.0493 4.908C33.8093 5.38 33.4133 5.876 32.8613 6.396C32.3093 6.916 31.5613 7.492 30.6173 8.124V8.136C30.7053 8.128 30.8253 8.124 30.9773 8.124C31.1373 8.116 31.2933 8.112 31.4453 8.112C31.6053 8.104 31.7253 8.1 31.8053 8.1H34.5773V9H29.2493ZM38.8374 9.12C38.1334 9.12 37.5094 8.956 36.9654 8.628C36.4294 8.292 36.0654 7.832 35.8734 7.248L36.8334 6.756C36.9294 7.052 37.0614 7.312 37.2294 7.536C37.3974 7.752 37.6174 7.92 37.8894 8.04C38.1694 8.16 38.5174 8.22 38.9334 8.22C39.2854 8.22 39.5814 8.156 39.8214 8.028C40.0614 7.9 40.2454 7.728 40.3734 7.512C40.5014 7.288 40.5654 7.032 40.5654 6.744C40.5654 6.456 40.5094 6.216 40.3974 6.024C40.2934 5.832 40.1254 5.692 39.8934 5.604C39.6614 5.508 39.3574 5.46 38.9814 5.46C38.8934 5.46 38.7974 5.464 38.6934 5.472C38.5894 5.472 38.4814 5.48 38.3694 5.496V4.536C38.4414 4.544 38.5094 4.548 38.5734 4.548C38.6454 4.548 38.7094 4.548 38.7654 4.548C39.3494 4.548 39.7654 4.436 40.0134 4.212C40.2614 3.98 40.3854 3.62 40.3854 3.132C40.3854 2.716 40.2574 2.4 40.0014 2.184C39.7454 1.968 39.3814 1.86 38.9094 1.86C38.4054 1.86 38.0214 1.972 37.7574 2.196C37.4934 2.412 37.2854 2.708 37.1334 3.084L36.2214 2.652C36.3494 2.316 36.5414 2.02 36.7974 1.764C37.0534 1.508 37.3614 1.308 37.7214 1.164C38.0894 1.02 38.4934 0.948 38.9334 0.948C39.4854 0.948 39.9414 1.044 40.3014 1.236C40.6614 1.42 40.9294 1.668 41.1054 1.98C41.2894 2.292 41.3814 2.636 41.3814 3.012C41.3814 3.3 41.3414 3.56 41.2614 3.792C41.1814 4.016 41.0694 4.212 40.9254 4.38C40.7894 4.548 40.6334 4.684 40.4574 4.788C40.2814 4.884 40.0934 4.948 39.8934 4.98V5.004C40.1574 5.012 40.3894 5.064 40.5894 5.16C40.7974 5.256 40.9734 5.384 41.1174 5.544C41.2614 5.704 41.3694 5.888 41.4414 6.096C41.5214 6.296 41.5614 6.508 41.5614 6.732C41.5614 7.196 41.4454 7.608 41.2134 7.968C40.9894 8.328 40.6734 8.612 40.2654 8.82C39.8574 9.02 39.3814 9.12 38.8374 9.12ZM55.3954 1.08V9H54.4834V4.02L54.5914 1.932H54.5794L51.9754 9H51.1594L48.5554 1.932H48.5434L48.6514 4.02V9H47.7394V1.08H49.2154L50.9554 5.892L51.5554 7.872H51.5794L52.1914 5.904L53.9194 1.08H55.3954ZM62.7335 3L59.9135 10.008C59.7615 10.4 59.5935 10.708 59.4095 10.932C59.2335 11.164 59.0335 11.328 58.8095 11.424C58.5935 11.528 58.3415 11.58 58.0535 11.58C57.7815 11.58 57.5295 11.54 57.2975 11.46C57.0735 11.388 56.8735 11.288 56.6975 11.16L56.9615 10.32C57.1215 10.464 57.2895 10.568 57.4655 10.632C57.6495 10.704 57.8295 10.74 58.0055 10.74C58.2135 10.74 58.4095 10.676 58.5935 10.548C58.7775 10.42 58.9455 10.16 59.0975 9.768L59.4095 8.988L58.8095 7.56L56.9015 3H57.9935L59.4935 6.912L59.8655 7.98L60.2975 6.792L61.7015 3H62.7335ZM64.169 9V1.08H66.989C67.925 1.08 68.609 1.276 69.041 1.668C69.473 2.06 69.689 2.592 69.689 3.264C69.689 3.664 69.573 4.028 69.341 4.356C69.109 4.676 68.781 4.88 68.357 4.968V4.98C68.829 5.068 69.201 5.284 69.473 5.628C69.753 5.964 69.893 6.348 69.893 6.78C69.893 7.452 69.641 7.992 69.137 8.4C68.633 8.8 67.913 9 66.977 9H64.169ZM65.129 8.1H67.205C67.773 8.1 68.193 7.984 68.465 7.752C68.745 7.52 68.885 7.196 68.885 6.78C68.885 6.356 68.745 6.032 68.465 5.808C68.193 5.576 67.773 5.46 67.205 5.46H65.129V8.1ZM65.129 4.56H67.001C68.121 4.56 68.681 4.128 68.681 3.264C68.681 2.408 68.121 1.98 67.001 1.98H65.129V4.56ZM72.7409 0.24V7.476C72.7409 7.78 72.7969 7.992 72.9089 8.112C73.0209 8.224 73.2009 8.28 73.4489 8.28C73.6089 8.28 73.7409 8.268 73.8449 8.244C73.9489 8.22 74.0889 8.176 74.2649 8.112L74.1089 8.952C73.9809 9.008 73.8409 9.048 73.6889 9.072C73.5369 9.104 73.3809 9.12 73.2209 9.12C72.7329 9.12 72.3689 8.988 72.1289 8.724C71.8969 8.46 71.7809 8.056 71.7809 7.512V0.24H72.7409ZM75.9769 1.848C75.7609 1.848 75.5849 1.784 75.4489 1.656C75.3209 1.52 75.2569 1.344 75.2569 1.128C75.2569 0.912 75.3209 0.74 75.4489 0.611999C75.5849 0.476 75.7609 0.408 75.9769 0.408C76.1929 0.408 76.3649 0.476 76.4929 0.611999C76.6289 0.74 76.6969 0.912 76.6969 1.128C76.6969 1.344 76.6289 1.52 76.4929 1.656C76.3649 1.784 76.1929 1.848 75.9769 1.848ZM76.4569 3V9H75.4969V3H76.4569ZM78.6844 9V3H79.5244L79.6084 4.344L79.4524 4.212C79.5804 3.892 79.7524 3.636 79.9684 3.444C80.1844 3.244 80.4324 3.1 80.7124 3.012C81.0004 2.924 81.2964 2.88 81.6004 2.88C82.0324 2.88 82.4244 2.964 82.7764 3.132C83.1284 3.292 83.4084 3.54 83.6164 3.876C83.8324 4.212 83.9404 4.64 83.9404 5.16V9H82.9804V5.496C82.9804 4.832 82.8364 4.372 82.5484 4.116C82.2684 3.852 81.9204 3.72 81.5044 3.72C81.2164 3.72 80.9284 3.788 80.6404 3.924C80.3524 4.06 80.1124 4.28 79.9204 4.584C79.7364 4.888 79.6444 5.296 79.6444 5.808V9H78.6844ZM91.166 1.896L91.382 2.748C91.374 2.748 91.362 2.748 91.346 2.748C91.33 2.748 91.314 2.748 91.298 2.748C90.906 2.748 90.602 2.828 90.386 2.988C90.178 3.14 90.074 3.388 90.074 3.732L89.486 3.432C89.486 3.12 89.558 2.848 89.702 2.616C89.846 2.384 90.042 2.208 90.29 2.088C90.538 1.96 90.81 1.896 91.106 1.896C91.114 1.896 91.122 1.896 91.13 1.896C91.146 1.896 91.158 1.896 91.166 1.896ZM89.342 8.232C89.91 8.232 90.354 8.364 90.674 8.628C90.994 8.884 91.154 9.228 91.154 9.66C91.154 10.052 91.022 10.392 90.758 10.68C90.502 10.968 90.154 11.188 89.714 11.34C89.282 11.5 88.794 11.58 88.25 11.58C87.306 11.58 86.598 11.42 86.126 11.1C85.662 10.78 85.43 10.396 85.43 9.948C85.43 9.628 85.534 9.34 85.742 9.084C85.958 8.836 86.318 8.696 86.822 8.664L86.738 8.844C86.466 8.772 86.234 8.652 86.042 8.484C85.858 8.308 85.766 8.056 85.766 7.728C85.766 7.4 85.886 7.12 86.126 6.888C86.374 6.648 86.738 6.5 87.218 6.444L87.854 6.768H87.734C87.342 6.808 87.062 6.908 86.894 7.068C86.734 7.22 86.654 7.388 86.654 7.572C86.654 7.796 86.734 7.964 86.894 8.076C87.062 8.18 87.294 8.232 87.59 8.232H89.342ZM88.238 10.776C88.702 10.776 89.082 10.728 89.378 10.632C89.682 10.536 89.906 10.412 90.05 10.26C90.194 10.108 90.266 9.944 90.266 9.768C90.266 9.552 90.178 9.38 90.002 9.252C89.834 9.124 89.526 9.06 89.078 9.06H87.23C86.974 9.06 86.758 9.124 86.582 9.252C86.406 9.388 86.318 9.572 86.318 9.804C86.318 10.1 86.486 10.336 86.822 10.512C87.166 10.688 87.638 10.776 88.238 10.776ZM88.154 2.88C88.634 2.88 89.058 2.968 89.426 3.144C89.802 3.312 90.094 3.548 90.302 3.852C90.51 4.156 90.614 4.508 90.614 4.908C90.614 5.3 90.51 5.652 90.302 5.964C90.094 6.268 89.802 6.508 89.426 6.684C89.058 6.852 88.634 6.936 88.154 6.936C87.362 6.936 86.754 6.748 86.33 6.372C85.906 5.988 85.694 5.5 85.694 4.908C85.694 4.508 85.798 4.156 86.006 3.852C86.222 3.548 86.514 3.312 86.882 3.144C87.25 2.968 87.674 2.88 88.154 2.88ZM88.154 3.66C87.738 3.66 87.39 3.776 87.11 4.008C86.83 4.232 86.69 4.532 86.69 4.908C86.69 5.276 86.83 5.576 87.11 5.808C87.39 6.04 87.738 6.156 88.154 6.156C88.57 6.156 88.918 6.04 89.198 5.808C89.478 5.576 89.618 5.276 89.618 4.908C89.618 4.532 89.478 4.232 89.198 4.008C88.918 3.776 88.57 3.66 88.154 3.66ZM92.9808 7.56C93.2128 7.56 93.4008 7.632 93.5448 7.776C93.6888 7.92 93.7608 8.108 93.7608 8.34C93.7608 8.572 93.6888 8.76 93.5448 8.904C93.4008 9.048 93.2128 9.12 92.9808 9.12C92.7488 9.12 92.5608 9.048 92.4168 8.904C92.2728 8.76 92.2008 8.572 92.2008 8.34C92.2008 8.108 92.2728 7.92 92.4168 7.776C92.5608 7.632 92.7488 7.56 92.9808 7.56ZM105.79 9H104.77L103.93 6.804H100.342L99.5016 9H98.4936L101.578 1.08H102.718L105.79 9ZM100.69 5.904H103.582L102.13 2.004L100.69 5.904ZM108.132 0.24V7.476C108.132 7.78 108.188 7.992 108.3 8.112C108.412 8.224 108.592 8.28 108.84 8.28C109 8.28 109.132 8.268 109.236 8.244C109.34 8.22 109.48 8.176 109.656 8.112L109.5 8.952C109.372 9.008 109.232 9.048 109.08 9.072C108.928 9.104 108.772 9.12 108.612 9.12C108.124 9.12 107.76 8.988 107.52 8.724C107.288 8.46 107.172 8.056 107.172 7.512V0.24H108.132ZM111.799 0.24V7.476C111.799 7.78 111.855 7.992 111.967 8.112C112.079 8.224 112.259 8.28 112.507 8.28C112.667 8.28 112.799 8.268 112.903 8.244C113.007 8.22 113.147 8.176 113.323 8.112L113.167 8.952C113.039 9.008 112.899 9.048 112.747 9.072C112.595 9.104 112.439 9.12 112.279 9.12C111.791 9.12 111.427 8.988 111.187 8.724C110.955 8.46 110.839 8.056 110.839 7.512V0.24H111.799ZM118.223 9V3H119.003L119.135 3.984C119.303 3.616 119.547 3.34 119.867 3.156C120.195 2.972 120.591 2.88 121.055 2.88C121.159 2.88 121.271 2.888 121.391 2.904C121.519 2.92 121.627 2.952 121.715 3L121.547 3.876C121.459 3.844 121.363 3.82 121.259 3.804C121.155 3.788 121.007 3.78 120.815 3.78C120.567 3.78 120.315 3.852 120.059 3.996C119.811 4.14 119.603 4.36 119.435 4.656C119.267 4.944 119.183 5.312 119.183 5.76V9H118.223ZM123.602 1.848C123.386 1.848 123.21 1.784 123.074 1.656C122.946 1.52 122.882 1.344 122.882 1.128C122.882 0.912 122.946 0.74 123.074 0.611999C123.21 0.476 123.386 0.408 123.602 0.408C123.818 0.408 123.99 0.476 124.118 0.611999C124.254 0.74 124.322 0.912 124.322 1.128C124.322 1.344 124.254 1.52 124.118 1.656C123.99 1.784 123.818 1.848 123.602 1.848ZM124.082 3V9H123.122V3H124.082ZM131.361 1.896L131.577 2.748C131.569 2.748 131.557 2.748 131.541 2.748C131.525 2.748 131.509 2.748 131.493 2.748C131.101 2.748 130.797 2.828 130.581 2.988C130.373 3.14 130.269 3.388 130.269 3.732L129.681 3.432C129.681 3.12 129.753 2.848 129.897 2.616C130.041 2.384 130.237 2.208 130.485 2.088C130.733 1.96 131.005 1.896 131.301 1.896C131.309 1.896 131.317 1.896 131.325 1.896C131.341 1.896 131.353 1.896 131.361 1.896ZM129.537 8.232C130.105 8.232 130.549 8.364 130.869 8.628C131.189 8.884 131.349 9.228 131.349 9.66C131.349 10.052 131.217 10.392 130.953 10.68C130.697 10.968 130.349 11.188 129.909 11.34C129.477 11.5 128.989 11.58 128.445 11.58C127.501 11.58 126.793 11.42 126.321 11.1C125.857 10.78 125.625 10.396 125.625 9.948C125.625 9.628 125.729 9.34 125.937 9.084C126.153 8.836 126.513 8.696 127.017 8.664L126.933 8.844C126.661 8.772 126.429 8.652 126.237 8.484C126.053 8.308 125.961 8.056 125.961 7.728C125.961 7.4 126.081 7.12 126.321 6.888C126.569 6.648 126.933 6.5 127.413 6.444L128.049 6.768H127.929C127.537 6.808 127.257 6.908 127.089 7.068C126.929 7.22 126.849 7.388 126.849 7.572C126.849 7.796 126.929 7.964 127.089 8.076C127.257 8.18 127.489 8.232 127.785 8.232H129.537ZM128.433 10.776C128.897 10.776 129.277 10.728 129.573 10.632C129.877 10.536 130.101 10.412 130.245 10.26C130.389 10.108 130.461 9.944 130.461 9.768C130.461 9.552 130.373 9.38 130.197 9.252C130.029 9.124 129.721 9.06 129.273 9.06H127.425C127.169 9.06 126.953 9.124 126.777 9.252C126.601 9.388 126.513 9.572 126.513 9.804C126.513 10.1 126.681 10.336 127.017 10.512C127.361 10.688 127.833 10.776 128.433 10.776ZM128.349 2.88C128.829 2.88 129.253 2.968 129.621 3.144C129.997 3.312 130.289 3.548 130.497 3.852C130.705 4.156 130.809 4.508 130.809 4.908C130.809 5.3 130.705 5.652 130.497 5.964C130.289 6.268 129.997 6.508 129.621 6.684C129.253 6.852 128.829 6.936 128.349 6.936C127.557 6.936 126.949 6.748 126.525 6.372C126.101 5.988 125.889 5.5 125.889 4.908C125.889 4.508 125.993 4.156 126.201 3.852C126.417 3.548 126.709 3.312 127.077 3.144C127.445 2.968 127.869 2.88 128.349 2.88ZM128.349 3.66C127.933 3.66 127.585 3.776 127.305 4.008C127.025 4.232 126.885 4.532 126.885 4.908C126.885 5.276 127.025 5.576 127.305 5.808C127.585 6.04 127.933 6.156 128.349 6.156C128.765 6.156 129.113 6.04 129.393 5.808C129.673 5.576 129.813 5.276 129.813 4.908C129.813 4.532 129.673 4.232 129.393 4.008C129.113 3.776 128.765 3.66 128.349 3.66ZM132.696 9V0.24H133.656V3.9C133.864 3.54 134.14 3.28 134.484 3.12C134.828 2.96 135.204 2.88 135.612 2.88C136.044 2.88 136.436 2.964 136.788 3.132C137.14 3.292 137.42 3.54 137.628 3.876C137.844 4.212 137.952 4.64 137.952 5.16V9H136.992V5.496C136.992 4.832 136.848 4.372 136.56 4.116C136.28 3.852 135.932 3.72 135.516 3.72C135.228 3.72 134.94 3.788 134.652 3.924C134.364 4.06 134.124 4.284 133.932 4.596C133.748 4.9 133.656 5.308 133.656 5.82V9H132.696ZM141.46 1.296V7.344C141.46 7.64 141.544 7.86 141.712 8.004C141.88 8.148 142.096 8.22 142.36 8.22C142.592 8.22 142.792 8.18 142.96 8.1C143.128 8.02 143.28 7.912 143.416 7.776L143.752 8.58C143.568 8.748 143.348 8.88 143.092 8.976C142.844 9.072 142.556 9.12 142.228 9.12C141.924 9.12 141.64 9.068 141.376 8.964C141.112 8.852 140.9 8.68 140.74 8.448C140.588 8.208 140.508 7.896 140.5 7.512V1.56L141.46 1.296ZM143.644 3V3.828H139.3V3H143.644ZM147.231 9.12C146.647 9.12 146.107 8.996 145.611 8.748C145.123 8.5 144.747 8.148 144.483 7.692L145.299 7.104C145.475 7.472 145.731 7.76 146.067 7.968C146.411 8.176 146.823 8.28 147.303 8.28C147.727 8.28 148.059 8.2 148.299 8.04C148.539 7.872 148.659 7.656 148.659 7.392C148.659 7.224 148.603 7.072 148.491 6.936C148.387 6.792 148.183 6.688 147.879 6.624L146.439 6.324C145.855 6.204 145.435 6.004 145.179 5.724C144.931 5.444 144.807 5.096 144.807 4.68C144.807 4.352 144.899 4.052 145.083 3.78C145.275 3.508 145.543 3.292 145.887 3.132C146.239 2.964 146.651 2.88 147.123 2.88C147.715 2.88 148.215 2.996 148.623 3.228C149.031 3.46 149.335 3.788 149.535 4.212L148.731 4.74C148.595 4.388 148.375 4.132 148.071 3.972C147.767 3.804 147.451 3.72 147.123 3.72C146.835 3.72 146.587 3.76 146.379 3.84C146.179 3.92 146.023 4.032 145.911 4.176C145.807 4.312 145.755 4.468 145.755 4.644C145.755 4.82 145.815 4.984 145.935 5.136C146.055 5.28 146.279 5.384 146.607 5.448L148.107 5.76C148.667 5.872 149.059 6.056 149.283 6.312C149.507 6.568 149.619 6.88 149.619 7.248C149.619 7.624 149.519 7.956 149.319 8.244C149.119 8.524 148.839 8.74 148.479 8.892C148.119 9.044 147.703 9.12 147.231 9.12ZM155.489 9V3H156.269L156.401 3.984C156.569 3.616 156.813 3.34 157.133 3.156C157.461 2.972 157.857 2.88 158.321 2.88C158.425 2.88 158.537 2.888 158.657 2.904C158.785 2.92 158.893 2.952 158.981 3L158.813 3.876C158.725 3.844 158.629 3.82 158.525 3.804C158.421 3.788 158.273 3.78 158.081 3.78C157.833 3.78 157.581 3.852 157.325 3.996C157.077 4.14 156.869 4.36 156.701 4.656C156.533 4.944 156.449 5.312 156.449 5.76V9H155.489ZM162.708 9.12C162.14 9.12 161.632 8.996 161.184 8.748C160.744 8.5 160.4 8.144 160.152 7.68C159.904 7.208 159.78 6.648 159.78 6C159.78 5.352 159.904 4.796 160.152 4.332C160.4 3.86 160.74 3.5 161.172 3.252C161.604 3.004 162.096 2.88 162.648 2.88C163.208 2.88 163.684 3 164.076 3.24C164.476 3.48 164.78 3.808 164.988 4.224C165.196 4.632 165.3 5.092 165.3 5.604C165.3 5.74 165.296 5.864 165.288 5.976C165.28 6.088 165.268 6.188 165.252 6.276H160.404V5.424H164.832L164.34 5.52C164.34 4.944 164.18 4.5 163.86 4.188C163.548 3.876 163.136 3.72 162.624 3.72C162.232 3.72 161.892 3.812 161.604 3.996C161.324 4.172 161.104 4.432 160.944 4.776C160.792 5.112 160.716 5.52 160.716 6C160.716 6.472 160.796 6.88 160.956 7.224C161.116 7.568 161.34 7.832 161.628 8.016C161.924 8.192 162.276 8.28 162.684 8.28C163.124 8.28 163.48 8.196 163.752 8.028C164.032 7.86 164.256 7.632 164.424 7.344L165.18 7.788C165.028 8.06 164.832 8.296 164.592 8.496C164.36 8.696 164.084 8.852 163.764 8.964C163.452 9.068 163.1 9.12 162.708 9.12ZM169.286 9.12C168.702 9.12 168.162 8.996 167.666 8.748C167.178 8.5 166.802 8.148 166.538 7.692L167.354 7.104C167.53 7.472 167.786 7.76 168.122 7.968C168.466 8.176 168.878 8.28 169.358 8.28C169.782 8.28 170.114 8.2 170.354 8.04C170.594 7.872 170.714 7.656 170.714 7.392C170.714 7.224 170.658 7.072 170.546 6.936C170.442 6.792 170.238 6.688 169.934 6.624L168.494 6.324C167.91 6.204 167.49 6.004 167.234 5.724C166.986 5.444 166.862 5.096 166.862 4.68C166.862 4.352 166.954 4.052 167.138 3.78C167.33 3.508 167.598 3.292 167.942 3.132C168.294 2.964 168.706 2.88 169.178 2.88C169.77 2.88 170.27 2.996 170.678 3.228C171.086 3.46 171.39 3.788 171.59 4.212L170.786 4.74C170.65 4.388 170.43 4.132 170.126 3.972C169.822 3.804 169.506 3.72 169.178 3.72C168.89 3.72 168.642 3.76 168.434 3.84C168.234 3.92 168.078 4.032 167.966 4.176C167.862 4.312 167.81 4.468 167.81 4.644C167.81 4.82 167.87 4.984 167.99 5.136C168.11 5.28 168.334 5.384 168.662 5.448L170.162 5.76C170.722 5.872 171.114 6.056 171.338 6.312C171.562 6.568 171.674 6.88 171.674 7.248C171.674 7.624 171.574 7.956 171.374 8.244C171.174 8.524 170.894 8.74 170.534 8.892C170.174 9.044 169.758 9.12 169.286 9.12ZM175.962 9.12C175.394 9.12 174.886 8.996 174.438 8.748C173.998 8.5 173.654 8.144 173.406 7.68C173.158 7.208 173.034 6.648 173.034 6C173.034 5.352 173.158 4.796 173.406 4.332C173.654 3.86 173.994 3.5 174.426 3.252C174.858 3.004 175.35 2.88 175.902 2.88C176.462 2.88 176.938 3 177.33 3.24C177.73 3.48 178.034 3.808 178.242 4.224C178.45 4.632 178.554 5.092 178.554 5.604C178.554 5.74 178.55 5.864 178.542 5.976C178.534 6.088 178.522 6.188 178.506 6.276H173.658V5.424H178.086L177.594 5.52C177.594 4.944 177.434 4.5 177.114 4.188C176.802 3.876 176.39 3.72 175.878 3.72C175.486 3.72 175.146 3.812 174.858 3.996C174.578 4.172 174.358 4.432 174.198 4.776C174.046 5.112 173.97 5.52 173.97 6C173.97 6.472 174.05 6.88 174.21 7.224C174.37 7.568 174.594 7.832 174.882 8.016C175.178 8.192 175.53 8.28 175.938 8.28C176.378 8.28 176.734 8.196 177.006 8.028C177.286 7.86 177.51 7.632 177.678 7.344L178.434 7.788C178.282 8.06 178.086 8.296 177.846 8.496C177.614 8.696 177.338 8.852 177.018 8.964C176.706 9.068 176.354 9.12 175.962 9.12ZM180.38 9V3H181.16L181.292 3.984C181.46 3.616 181.704 3.34 182.024 3.156C182.352 2.972 182.748 2.88 183.212 2.88C183.316 2.88 183.428 2.888 183.548 2.904C183.676 2.92 183.784 2.952 183.872 3L183.704 3.876C183.616 3.844 183.52 3.82 183.416 3.804C183.312 3.788 183.164 3.78 182.972 3.78C182.724 3.78 182.472 3.852 182.216 3.996C181.968 4.14 181.76 4.36 181.592 4.656C181.424 4.944 181.34 5.312 181.34 5.76V9H180.38ZM189.25 3H190.258L187.762 9H186.802L184.306 3H185.398L187.294 8.028L189.25 3ZM194.02 9.12C193.452 9.12 192.944 8.996 192.496 8.748C192.056 8.5 191.712 8.144 191.464 7.68C191.216 7.208 191.092 6.648 191.092 6C191.092 5.352 191.216 4.796 191.464 4.332C191.712 3.86 192.052 3.5 192.484 3.252C192.916 3.004 193.408 2.88 193.96 2.88C194.52 2.88 194.996 3 195.388 3.24C195.788 3.48 196.092 3.808 196.3 4.224C196.508 4.632 196.612 5.092 196.612 5.604C196.612 5.74 196.608 5.864 196.6 5.976C196.592 6.088 196.58 6.188 196.564 6.276H191.716V5.424H196.144L195.652 5.52C195.652 4.944 195.492 4.5 195.172 4.188C194.86 3.876 194.448 3.72 193.936 3.72C193.544 3.72 193.204 3.812 192.916 3.996C192.636 4.172 192.416 4.432 192.256 4.776C192.104 5.112 192.028 5.52 192.028 6C192.028 6.472 192.108 6.88 192.268 7.224C192.428 7.568 192.652 7.832 192.94 8.016C193.236 8.192 193.588 8.28 193.996 8.28C194.436 8.28 194.792 8.196 195.064 8.028C195.344 7.86 195.568 7.632 195.736 7.344L196.492 7.788C196.34 8.06 196.144 8.296 195.904 8.496C195.672 8.696 195.396 8.852 195.076 8.964C194.764 9.068 194.412 9.12 194.02 9.12ZM200.778 9.12C200.282 9.12 199.826 8.996 199.41 8.748C198.994 8.5 198.662 8.144 198.414 7.68C198.166 7.208 198.042 6.648 198.042 6C198.042 5.336 198.174 4.772 198.438 4.308C198.702 3.844 199.05 3.492 199.482 3.252C199.914 3.004 200.378 2.88 200.874 2.88C201.37 2.88 201.798 3.008 202.158 3.264C202.526 3.52 202.77 3.86 202.89 4.284L202.77 4.368V0.24H203.73V9H202.89L202.806 7.548L202.938 7.476C202.882 7.828 202.746 8.128 202.53 8.376C202.322 8.616 202.062 8.8 201.75 8.928C201.446 9.056 201.122 9.12 200.778 9.12ZM200.874 8.28C201.258 8.28 201.59 8.184 201.87 7.992C202.158 7.8 202.378 7.528 202.53 7.176C202.69 6.816 202.77 6.396 202.77 5.916C202.77 5.46 202.69 5.068 202.53 4.74C202.378 4.412 202.162 4.16 201.882 3.984C201.61 3.808 201.29 3.72 200.922 3.72C200.314 3.72 199.842 3.928 199.506 4.344C199.17 4.76 199.002 5.312 199.002 6C199.002 6.688 199.166 7.24 199.494 7.656C199.822 8.072 200.282 8.28 200.874 8.28ZM206.442 7.56C206.674 7.56 206.862 7.632 207.006 7.776C207.15 7.92 207.222 8.108 207.222 8.34C207.222 8.572 207.15 8.76 207.006 8.904C206.862 9.048 206.674 9.12 206.442 9.12C206.21 9.12 206.022 9.048 205.878 8.904C205.734 8.76 205.662 8.572 205.662 8.34C205.662 8.108 205.734 7.92 205.878 7.776C206.022 7.632 206.21 7.56 206.442 7.56Z" fill="#5E5E5E"/>
</svg>
